HIERARCHY
ROOT reference
{
  OFFSET 0 0 0
  CHANNELS 6 Xposition Yposition Zposition Zrotation Xrotation Yrotation
  JOINT Hips
  {
    OFFSET 347.352 87.9396 215.108
    CHANNELS 3 Zrotation Xrotation Yrotation
    JOINT RightUpLeg
    {
      OFFSET -9.26448 -1.5905 0.0349838
      CHANNELS 3 Zrotation Xrotation Yrotation
      JOINT RightLeg
      {
        OFFSET 0.0309074 -41.8937 0.0182011
        CHANNELS 3 Zrotation Xrotation Yrotation
        JOINT RightFoot
        {
          OFFSET 0.355296 -42.3801 0.810868
          CHANNELS 3 Zrotation Xrotation Yrotation
          End Site
          {
            OFFSET 0 -7.69 17.5
          }
        }
      }
    }
    JOINT LeftUpLeg
    {
      OFFSET 9.27369 -1.59127 -0.0547904
      CHANNELS 3 Zrotation Xrotation Yrotation
      JOINT LeftLeg
      {
        OFFSET 0.0553589 -41.8938 0.0587288
        CHANNELS 3 Zrotation Xrotation Yrotation
        JOINT LeftFoot
        {
          OFFSET 0.217916 -41.5497 -0.688939
          CHANNELS 3 Zrotation Xrotation Yrotation
          End Site
          {
            OFFSET 0 -7.69 17.5
          }
        }
      }
    }
    JOINT Spine
    {
      OFFSET 0.0383554 14.2988 0.0402393
      CHANNELS 3 Zrotation Xrotation Yrotation
      JOINT Spine1
      {
        OFFSET 0.0188251 9.70742 0.0136471
        CHANNELS 3 Zrotation Xrotation Yrotation
        JOINT Spine2
        {
          OFFSET 0.0421292 10.115 0.0126686
          CHANNELS 3 Zrotation Xrotation Yrotation
          JOINT Spine3
          {
            OFFSET 0.0499826 9.71803 0.0151296
            CHANNELS 3 Zrotation Xrotation Yrotation
            JOINT Neck
            {
              OFFSET 0.04654 10.3867 0.0448026
              CHANNELS 3 Zrotation Xrotation Yrotation
              JOINT Head
              {
                OFFSET 0.0370611 9.47282 0.0189897
                CHANNELS 3 Zrotation Xrotation Yrotation
                End Site
                {
                  OFFSET 0 15.95 0
                }
              }
            }
            JOINT RightShoulder
            {
              OFFSET -3.19309 6.93146 -0.00624137
              CHANNELS 3 Zrotation Xrotation Yrotation
              JOINT RightArm
              {
                OFFSET -12.7764 0.00688168 -0.00548706
                CHANNELS 3 Zrotation Xrotation Yrotation
                JOINT RightForeArm
                {
                  OFFSET -26.5073 -0.0244096 0.0677859
                  CHANNELS 3 Zrotation Xrotation Yrotation
                  JOINT RightHand
                  {
                    OFFSET -26.0056 -0.000416843 0.0508974
                    CHANNELS 3 Zrotation Xrotation Yrotation
                    JOINT RightHandThumb1
                    {
                      OFFSET -2.48905 0.190105 3.12053
                      CHANNELS 3 Zrotation Xrotation Yrotation
                      JOINT RightHandThumb2
                      {
                        OFFSET -3.68274 0 0
                        CHANNELS 3 Zrotation Xrotation Yrotation
                        JOINT RightHandThumb3
                        {
                          OFFSET -2.55832 0 0
                          CHANNELS 3 Zrotation Xrotation Yrotation
                          End Site
                          {
                            OFFSET -2.194 0 0
                          }
                        }
                      }
                    }
                    JOINT RightInHandIndex
                    {
                      OFFSET -3.22368 0.508421 1.97842
                      CHANNELS 3 Zrotation Xrotation Yrotation
                      JOINT RightHandIndex1
                      {
                        OFFSET -5.21684 -0.091368 0.999158
                        CHANNELS 3 Zrotation Xrotation Yrotation
                        JOINT RightHandIndex2
                        {
                          OFFSET -3.61937 0 0
                          CHANNELS 3 Zrotation Xrotation Yrotation
                          JOINT RightHandIndex3
                          {
                            OFFSET -2.0521 0 0
                            CHANNELS 3 Zrotation Xrotation Yrotation
                            End Site
                            {
                              OFFSET -1.805 0 0
                            }
                          }
                        }
                      }
                    }
                    JOINT RightInHandMiddle
                    {
                      OFFSET -3.38211 0.517263 0.756737
                      CHANNELS 3 Zrotation Xrotation Yrotation
                      JOINT RightHandMiddle1
                      {
                        OFFSET -5.17411 -0.084 0.313895
                        CHANNELS 3 Zrotation Xrotation Yrotation
                        JOINT RightHandMiddle2
                        {
                          OFFSET -3.94947 0 0
                          CHANNELS 3 Zrotation Xrotation Yrotation
                          JOINT RightHandMiddle3
                          {
                            OFFSET -2.47579 0 0
                            CHANNELS 3 Zrotation Xrotation Yrotation
                            End Site
                            {
                              OFFSET -1.975 0 0
                            }
                          }
                        }
                      }
                    }
                    JOINT RightInHandRing
                    {
                      OFFSET -3.36516 0.537895 -0.128947
                      CHANNELS 3 Zrotation Xrotation Yrotation
                      JOINT RightHandRing1
                      {
                        OFFSET -4.63474 -0.022105 -0.478947
                        CHANNELS 3 Zrotation Xrotation Yrotation
                        JOINT RightHandRing2
                        {
                          OFFSET -3.44238 0 0
                          CHANNELS 3 Zrotation Xrotation Yrotation
                          JOINT RightHandRing3
                          {
                            OFFSET -2.3881 0 0
                            CHANNELS 3 Zrotation Xrotation Yrotation
                            End Site
                            {
                              OFFSET -1.857 0 0
                            }
                          }
                        }
                      }
                    }
                    JOINT RightInHandPinky
                    {
                      OFFSET -3.16105 0.469368 -1.20179
                      CHANNELS 3 Zrotation Xrotation Yrotation
                      JOINT RightHandPinky1
                      {
                        OFFSET -4.14105 -0.022105 -1.09053
                        CHANNELS 3 Zrotation Xrotation Yrotation
                        JOINT RightHandPinky2
                        {
                          OFFSET -2.75653 0 0
                          CHANNELS 3 Zrotation Xrotation Yrotation
                          JOINT RightHandPinky3
                          {
                            OFFSET -1.74189 0 0
                            CHANNELS 3 Zrotation Xrotation Yrotation
                            End Site
                            {
                              OFFSET -1.645 0 0
                            }
                          }
                        }
                      }
                    }
                  }
                }
              }
            }
            JOINT LeftShoulder
            {
              OFFSET 3.25131 6.94393 -0.0111894
              CHANNELS 3 Zrotation Xrotation Yrotation
              JOINT LeftArm
              {
                OFFSET 12.7762 -0.0164608 -0.057961
                CHANNELS 3 Zrotation Xrotation Yrotation
                JOINT LeftForeArm
                {
                  OFFSET 26.494 -0.0292415 -0.00751187
                  CHANNELS 3 Zrotation Xrotation Yrotation
                  JOINT LeftHand
                  {
                    OFFSET 26.0005 -0.052199 0.00178648
                    CHANNELS 3 Zrotation Xrotation Yrotation
                    JOINT LeftHandThumb1
                    {
                      OFFSET 2.48905 0.190105 3.12053
                      CHANNELS 3 Zrotation Xrotation Yrotation
                      JOINT LeftHandThumb2
                      {
                        OFFSET 3.68274 0 0
                        CHANNELS 3 Zrotation Xrotation Yrotation
                        JOINT LeftHandThumb3
                        {
                          OFFSET 2.55832 0 0
                          CHANNELS 3 Zrotation Xrotation Yrotation
                          End Site
                          {
                            OFFSET 2.194 0 0
                          }
                        }
                      }
                    }
                    JOINT LeftInHandIndex
                    {
                      OFFSET 3.22368 0.508421 1.97842
                      CHANNELS 3 Zrotation Xrotation Yrotation
                      JOINT LeftHandIndex1
                      {
                        OFFSET 5.21684 -0.091368 0.999158
                        CHANNELS 3 Zrotation Xrotation Yrotation
                        JOINT LeftHandIndex2
                        {
                          OFFSET 3.61937 0 0
                          CHANNELS 3 Zrotation Xrotation Yrotation
                          JOINT LeftHandIndex3
                          {
                            OFFSET 2.0521 0 0
                            CHANNELS 3 Zrotation Xrotation Yrotation
                            End Site
                            {
                              OFFSET 1.805 0 0
                            }
                          }
                        }
                      }
                    }
                    JOINT LeftInHandMiddle
                    {
                      OFFSET 3.38211 0.517263 0.756737
                      CHANNELS 3 Zrotation Xrotation Yrotation
                      JOINT LeftHandMiddle1
                      {
                        OFFSET 5.17411 -0.084 0.313895
                        CHANNELS 3 Zrotation Xrotation Yrotation
                        JOINT LeftHandMiddle2
                        {
                          OFFSET 3.94947 0 0
                          CHANNELS 3 Zrotation Xrotation Yrotation
                          JOINT LeftHandMiddle3
                          {
                            OFFSET 2.47579 0 0
                            CHANNELS 3 Zrotation Xrotation Yrotation
                            End Site
                            {
                              OFFSET 1.975 0 0
                            }
                          }
                        }
                      }
                    }
                    JOINT LeftInHandRing
                    {
                      OFFSET 3.36516 0.537895 -0.128947
                      CHANNELS 3 Zrotation Xrotation Yrotation
                      JOINT LeftHandRing1
                      {
                        OFFSET 4.63474 -0.022105 -0.478947
                        CHANNELS 3 Zrotation Xrotation Yrotation
                        JOINT LeftHandRing2
                        {
                          OFFSET 3.44238 0 0
                          CHANNELS 3 Zrotation Xrotation Yrotation
                          JOINT LeftHandRing3
                          {
                            OFFSET 2.3881 0 0
                            CHANNELS 3 Zrotation Xrotation Yrotation
                            End Site
                            {
                              OFFSET 1.857 0 0
                            }
                          }
                        }
                      }
                    }
                    JOINT LeftInHandPinky
                    {
                      OFFSET 3.16105 0.469368 -1.20179
                      CHANNELS 3 Zrotation Xrotation Yrotation
                      JOINT LeftHandPinky1
                      {
                        OFFSET 4.14105 -0.022105 -1.09053
                        CHANNELS 3 Zrotation Xrotation Yrotation
                        JOINT LeftHandPinky2
                        {
                          OFFSET 2.75653 0 0
                          CHANNELS 3 Zrotation Xrotation Yrotation
                          JOINT LeftHandPinky3
                          {
                            OFFSET 1.74189 0 0
                            CHANNELS 3 Zrotation Xrotation Yrotation
                            End Site
                            {
                              OFFSET 1.645 0 0
                            }
                          }
                        }
                      }
                    }
                  }
                }
              }
            }
          }
        }
      }
    }
  }
}
MOTION
Frames:	6
Frame Time:	0.00833333
0 0 0 0 0 -0 27.9521 12.8315 -66.4132 -33.7915 -50.412 -40.7007 0.64797 24.9953 -7.69413 11.5409 4.69914 21.2673 19.1502 -49.5848 6.9731 1.54776 29.8641 -1.94466 -15.1742 -9.71888 -16.76 -12.843 9.12621 19.9008 -2.93037 3.02799 4.70185 -4.80321 5.08302 7.38894 0.288977 -0.545086 -0.882898 0.289378 -0.543704 -0.886953 4.10356 -10.2024 -15.9164 5.28209 -14.9054 12.8599 71.119 2.43827 52.262 10.7841 -50.3557 -0.894358 16.5539 -27.0743 -22.7711 28.184 10.7294 19.1592 5.47781e-15 -5.56597e-15 -10 -8.14169e-15 -9.54166e-15 -10 3.18055e-15 6.36111e-15 -0 19.9818 0.871897 2.3964 24 5.56597e-15 2.54444e-14 20 -5.1684e-15 -6.36111e-15 3.18055e-15 6.36111e-15 -0 20 -3.18055e-15 -3.18055e-15 24 -5.56597e-15 3.18055e-15 20 1.63003e-14 6.36111e-15 3.18055e-15 6.36111e-15 -0 19.9748 -1.02565 -2.81938 24 -1.59028e-15 -9.54166e-15 20 -7.15625e-15 -9.54166e-15 3.18055e-15 6.36111e-15 -0 19.7815 -3.00948 -8.30515 24 -6.36111e-15 6.36111e-15 20 3.8763e-15 3.18055e-15 17.032 -14.3328 -31.4927 -40.6211 35.5981 -70.8649 19.819 -77.9222 19.388 -29.475 -16.4307 8.23434 -28.184 10.7294 -19.1592 -5.3376e-15 -6.36111e-15 10 -3.51003e-15 1.59028e-15 10 4.77083e-15 -9.54166e-15 3.18055e-15 -19.9818 0.871897 -2.3964 -24 7.95139e-16 -1.27222e-14 -20 3.18055e-15 3.18055e-15 4.77083e-15 -9.54166e-15 3.18055e-15 -20 1.43125e-14 1.59028e-14 -24 6.75868e-15 6.36111e-15 -20 1.27222e-14 -1.27222e-14 4.77083e-15 -9.54166e-15 3.18055e-15 -19.9748 -1.02565 2.81938 -24 3.97569e-15 1.59028e-14 -20 0 -9.54166e-15 4.77083e-15 -9.54166e-15 3.18055e-15 -19.7815 -3.00948 8.30515 -24 1.35174e-14 -3.18055e-15 -20 -9.54166e-15 9.54166e-15 
0 0 0 0 0 -0 27.9504 12.8283 -66.4335 -33.7783 -50.4297 -40.6464 0.642309 25.0122 -7.71646 11.5502 4.69914 21.2673 19.1716 -49.5661 7.02088 1.55756 29.8295 -1.9664 -15.1802 -9.68493 -16.7583 -12.8462 9.12507 19.9209 -2.93037 3.02799 4.70185 -4.80394 5.08292 7.39719 0.288977 -0.545086 -0.882898 0.289378 -0.543704 -0.886953 4.10468 -10.1974 -15.9098 5.30376 -14.906 12.8638 71.1289 2.44305 52.247 10.7973 -50.33 -0.859815 16.5602 -27.0928 -22.7721 28.184 10.7294 19.1592 1.61481e-14 0 -10 2.94921e-15 -1.59028e-15 -10 -8.82781e-32 3.18055e-15 1.59028e-15 19.9818 0.871897 2.3964 24 -2.38542e-15 1.59028e-14 20 -3.57812e-15 9.54166e-15 -8.82781e-32 3.18055e-15 1.59028e-15 20 -1.27222e-14 -0 24 -2.38542e-15 -0 20 1.86858e-14 1.90833e-14 -8.82781e-32 3.18055e-15 1.59028e-15 19.9748 -1.02565 -2.81938 24 1.59028e-15 3.18055e-15 20 -6.36111e-15 -0 -8.82781e-32 3.18055e-15 1.59028e-15 19.7815 -3.00948 -8.30515 24 4.77083e-15 6.36111e-15 20 1.09332e-15 -0 17.0385 -14.3313 -31.5031 -40.6983 35.5979 -70.7958 19.7075 -77.8511 19.2717 -29.4887 -16.4309 8.22876 -28.184 10.7294 -19.1592 3.29726e-15 -9.54166e-15 10 -3.79044e-15 3.18055e-15 10 9.54166e-15 -6.36111e-15 -3.18055e-15 -19.9818 0.871897 -2.3964 -24 -3.18055e-15 -1.90833e-14 -20 3.18055e-15 -9.54166e-15 9.54166e-15 -6.36111e-15 -3.18055e-15 -20 1.11319e-14 3.18055e-15 -24 5.56597e-15 -0 -20 4.77083e-15 -2.8625e-14 9.54166e-15 -6.36111e-15 -3.18055e-15 -19.9748 -1.02565 2.81938 -24 1.59028e-15 3.18055e-15 -20 3.18055e-15 -1.59028e-14 9.54166e-15 -6.36111e-15 -3.18055e-15 -19.7815 -3.00948 8.30515 -24 1.03368e-14 -6.36111e-15 -20 -3.18055e-15 -3.18055e-15 
0 0 0 0 0 -0 27.953 12.8171 -66.4656 -33.7493 -50.4368 -40.5908 0.629372 25.0146 -7.71614 11.5652 4.69914 21.2673 19.1785 -49.5506 7.07155 1.57667 29.8132 -1.98623 -15.185 -9.66014 -16.757 -12.8406 9.12238 19.9283 -2.93037 3.02799 4.70185 -4.80428 5.08288 7.40101 0.288977 -0.545086 -0.882898 0.289378 -0.543704 -0.886953 4.08817 -10.1866 -15.8844 5.3056 -14.8934 12.9003 71.1388 2.43017 52.2305 10.7597 -50.3651 -0.898355 16.6187 -27.0469 -22.7468 28.184 10.7294 19.1592 2.97676e-14 3.97569e-15 -10 9.96927e-15 1.59028e-15 -10 -3.18055e-15 9.54166e-15 -1.11319e-14 19.9818 0.871897 2.3964 24 7.95139e-15 5.08889e-14 20 1.23246e-14 4.45278e-14 -3.18055e-15 9.54166e-15 -1.11319e-14 20 -6.36111e-15 2.54444e-14 24 4.77083e-15 4.13472e-14 20 2.06736e-14 4.77083e-14 -3.18055e-15 9.54166e-15 -1.11319e-14 19.9748 -1.02565 -2.81938 24 4.77083e-15 2.22639e-14 20 -2.78299e-15 3.18055e-14 -3.18055e-15 9.54166e-15 -1.11319e-14 19.7815 -3.00948 -8.30515 24 4.77083e-15 2.54444e-14 20 1.26228e-14 3.81667e-14 17.0117 -14.3313 -31.5026 -40.7405 35.6278 -70.7625 19.7106 -77.8056 19.2513 -29.4894 -16.4302 8.2195 -28.184 10.7294 -19.1592 -1.47952e-15 -1.90833e-14 10 -1.20773e-14 -4.77083e-15 10 -0 -3.18055e-15 -0 -19.9818 0.871897 -2.3964 -24 2.5842e-15 -1.90833e-14 -20 3.18055e-15 -2.22639e-14 -0 -3.18055e-15 -0 -20 1.27222e-14 6.36111e-15 -24 5.96354e-15 -1.27222e-14 -20 1.43125e-14 -3.81667e-14 -0 -3.18055e-15 -0 -19.9748 -1.02565 2.81938 -24 -7.95139e-16 3.18055e-15 -20 3.18055e-15 -3.18055e-15 -0 -3.18055e-15 -0 -19.7815 -3.00948 8.30515 -24 6.36111e-15 -1.90833e-14 -20 0 -2.54444e-14 
0 0 0 0 0 -0 27.948 12.8251 -66.4947 -33.7115 -50.4553 -40.5197 0.633219 25.015 -7.74045 11.5709 4.7066 21.2675 19.209 -49.5414 7.12462 1.59018 29.8124 -1.99427 -15.1854 -9.64278 -16.7656 -12.8249 9.11522 19.9393 -2.93058 3.02797 4.70579 -4.80407 5.0828 7.40777 0.288977 -0.545086 -0.882898 0.289378 -0.543704 -0.886953 4.06737 -10.1679 -15.8708 5.31674 -14.8822 12.9175 71.1455 2.43072 52.2083 10.8255 -50.355 -0.808706 16.6172 -27.0533 -22.7472 28.184 10.7294 19.1592 1.86767e-14 -3.97569e-15 -10 -5.19248e-15 -1.11319e-14 -10 3.18055e-15 3.18055e-15 -1.27222e-14 19.9818 0.871897 2.3964 24 1.35174e-14 4.13472e-14 20 -2.38542e-15 1.59028e-14 3.18055e-15 3.18055e-15 -1.27222e-14 20 0 2.54444e-14 24 -4.77083e-15 3.81667e-14 20 1.19271e-14 1.59028e-14 3.18055e-15 3.18055e-15 -1.27222e-14 19.9748 -1.02565 -2.81938 24 3.18055e-15 2.8625e-14 20 5.1684e-15 2.22639e-14 3.18055e-15 3.18055e-15 -1.27222e-14 19.7815 -3.00948 -8.30515 24 -3.18055e-15 1.59028e-14 20 6.65929e-15 1.27222e-14 16.9924 -14.3311 -31.5043 -40.7723 35.6373 -70.7223 19.6447 -77.7609 19.1807 -29.5111 -16.4223 8.2062 -28.184 10.7294 -19.1592 1.08105e-14 -6.36111e-15 10 -1.12164e-15 6.36111e-15 10 6.36111e-15 -9.54166e-15 -1.27222e-14 -19.9818 0.871897 -2.3964 -24 5.76476e-15 -1.90833e-14 -20 6.36111e-15 -1.59028e-14 6.36111e-15 -9.54166e-15 -1.27222e-14 -20 3.18055e-15 -3.18055e-15 -24 7.95139e-15 -0 -20 1.11319e-14 -1.59028e-14 6.36111e-15 -9.54166e-15 -1.27222e-14 -19.9748 -1.02565 2.81938 -24 2.38542e-15 -3.18055e-15 -20 4.77083e-15 -1.59028e-14 6.36111e-15 -9.54166e-15 -1.27222e-14 -19.7815 -3.00948 8.30515 -24 4.77083e-15 -1.27222e-14 -20 -3.18055e-15 -3.18055e-15 
0 0 0 0 0 -0 27.9577 12.8164 -66.5425 -33.688 -50.4858 -40.4353 0.633414 25.0154 -7.77138 11.5853 4.71703 21.2679 19.2394 -49.5256 7.20835 1.6075 29.8193 -1.98973 -15.1906 -9.63772 -16.794 -12.8267 9.09479 19.9707 -2.93105 3.02793 4.71476 -4.80374 5.07782 7.42114 0.288977 -0.545086 -0.882898 0.289378 -0.543704 -0.886953 4.06272 -10.1472 -15.8678 5.34089 -14.8651 12.93 71.1509 2.41677 52.1786 10.818 -50.4169 -0.812072 16.6881 -26.9744 -22.7092 28.184 10.7294 19.1592 1.51667e-14 -5.56597e-15 -10 -4.35126e-15 -6.36111e-15 -10 -9.54166e-15 6.36111e-15 -3.18055e-15 19.9818 0.871897 2.3964 24 7.15625e-15 3.18055e-14 20 -2.38542e-15 9.54166e-15 -9.54166e-15 6.36111e-15 -3.18055e-15 20 -6.36111e-15 2.54444e-14 24 7.95139e-16 6.36111e-15 20 1.31198e-14 1.59028e-14 -9.54166e-15 6.36111e-15 -3.18055e-15 19.9748 -1.02565 -2.81938 24 -7.95139e-16 9.54166e-15 20 8.94531e-15 1.27222e-14 -9.54166e-15 6.36111e-15 -3.18055e-15 19.7815 -3.00948 -8.30515 24 3.18055e-15 1.59028e-14 20 -6.4605e-15 1.27222e-14 16.9959 -14.3256 -31.5151 -40.7741 35.6541 -70.7137 19.6012 -77.7804 19.125 -29.4973 -16.3697 8.21518 -28.184 10.7294 -19.1592 4.4189e-15 -1.59028e-14 10 -9.68886e-15 0 10 -4.77083e-15 -1.27222e-14 -6.36111e-15 -19.9818 0.871897 -2.3964 -24 -9.93923e-16 -1.27222e-14 -20 1.59028e-15 -9.54166e-15 -4.77083e-15 -1.27222e-14 -6.36111e-15 -20 9.54166e-15 3.18055e-15 -24 1.19271e-15 -1.90833e-14 -20 9.54166e-15 -3.18055e-15 -4.77083e-15 -1.27222e-14 -6.36111e-15 -19.9748 -1.02565 2.81938 -24 1.59028e-15 -3.18055e-15 -20 4.77083e-15 -1.59028e-14 -4.77083e-15 -1.27222e-14 -6.36111e-15 -19.7815 -3.00948 8.30515 -24 4.77083e-15 -1.59028e-14 -20 -3.18055e-15 -3.18055e-15 
0 0 0 0 0 -0 27.9708 12.8153 -66.5961 -33.6565 -50.5272 -40.3605 0.62773 25.0187 -7.788 11.5963 4.72843 21.2682 19.3007 -49.5176 7.31505 1.61555 29.8228 -1.9828 -15.2042 -9.61879 -16.829 -12.8266 9.07013 19.9878 -2.93084 3.02157 4.72065 -4.80252 5.06879 7.43044 0.287694 -0.545086 -0.882898 0.289378 -0.543704 -0.886953 4.03015 -10.1113 -15.8515 5.35286 -14.8342 12.9444 71.1492 2.4189 52.1521 10.9282 -50.4587 -0.675975 16.7137 -26.9466 -22.6874 28.184 10.7294 19.1592 3.93163e-14 3.18055e-15 -10 1.96581e-14 1.59028e-15 -10 -3.18055e-15 3.18055e-15 -6.36111e-15 19.9818 0.871897 2.3964 24 1.19271e-14 7.31528e-14 20 1.15295e-14 8.5875e-14 -3.18055e-15 3.18055e-15 -6.36111e-15 20 -1.59028e-15 3.49861e-14 24 5.56597e-15 5.40694e-14 20 2.78299e-14 6.99722e-14 -3.18055e-15 3.18055e-15 -6.36111e-15 19.9748 -1.02565 -2.81938 24 1.11319e-14 4.13472e-14 20 6.75868e-15 5.08889e-14 -3.18055e-15 3.18055e-15 -6.36111e-15 19.7815 -3.00948 -8.30515 24 -6.36111e-15 4.45278e-14 20 1.43125e-14 5.725e-14 16.9783 -14.3093 -31.5167 -40.7491 35.6618 -70.7062 19.5499 -77.809 19.0791 -29.4828 -16.3053 8.22021 -28.184 10.7294 -19.1592 -1.47952e-15 -1.90833e-14 10 -1.36921e-14 -4.77083e-15 10 -8.82781e-31 -1.59028e-14 -3.18055e-15 -19.9818 0.871897 -2.3964 -24 -1.59028e-15 -1.59028e-14 -20 4.77083e-15 -1.59028e-14 -8.82781e-31 -1.59028e-14 -3.18055e-15 -20 9.54166e-15 -1.27222e-14 -24 3.57812e-15 -1.27222e-14 -20 1.11319e-14 -2.22639e-14 -8.82781e-31 -1.59028e-14 -3.18055e-15 -19.9748 -1.02565 2.81938 -24 1.59028e-15 -1.59028e-14 -20 4.77083e-15 -1.90833e-14 -8.82781e-31 -1.59028e-14 -3.18055e-15 -19.7815 -3.00948 8.30515 -24 7.15625e-15 -1.90833e-14 -20 -3.18055e-15 -1.59028e-14 
